<?xml version="1.0" encoding="UTF-8" standalone="no"?>
<svg
   width="180.69438mm"
   height="181.22359mm"
   viewBox="0 0 682.9394 684.93955"
   version="1.1"
   xml:space="preserve"
   id="SVGRoot"
   xmlns="http://www.w3.org/2000/svg"
   xmlns:svg="http://www.w3.org/2000/svg"><defs
   id="defs1" />

<style
   type="text/css"
   id="style1">
g.prefab path {
  vector-effect:non-scaling-stroke;
  -inkscape-stroke:hairline;
  fill: none;
  fill-opacity: 1;
  stroke-opacity: 1;
  stroke: #00349c;
}
</style>

<g
   id="g1294"
   style="stroke-width:11.9622;stroke-dasharray:none"
   transform="translate(-55.296192,-208.01958)"><g
     id="g1293"
     style="stroke-width:11.9622;stroke-dasharray:none"><path
       style="fill:none;fill-opacity:1;stroke:#000000;stroke-width:11.9622;stroke-linecap:round;stroke-linejoin:round;stroke-dasharray:none;stroke-opacity:1;paint-order:markers stroke fill"
       d="M 162.55273,421.31879 61.276595,551.48935 c 106.272005,-14.59068 153.398535,-184.4543 335.489355,0 182.09082,-184.4543 229.21735,-14.59068 335.48935,0 L 630.97917,421.31879 m -502.1331,134.54616 -22.62242,163.36908 c 84.73891,-65.7719 40.61987,-236.44138 290.5423,-167.74468 65.46813,-250.78752 191.21271,-127.24457 290.5423,-167.74468 L 534.51527,321.65173 M 166.92833,689.23867 229.02127,842.03165 C 269.52138,742.70206 145.97843,616.95748 396.76595,551.48935 328.06925,301.56692 498.73873,345.68596 564.51063,260.94705 L 401.14155,283.56947 M 266.59539,785.70257 396.76595,886.9787 c -14.59068,-106.272 -184.4543,-153.39853 0,-335.48935 C 212.31165,369.39853 382.17527,322.272 396.76595,216 L 266.59539,317.27613 m 134.54616,502.1331 163.36908,22.62242 C 498.73873,757.29274 328.06925,801.41178 396.76595,551.48935 145.97843,486.02122 269.52138,360.27664 229.02127,260.94705 L 166.92833,413.74003 M 534.51527,781.32697 687.30825,719.23403 C 587.97866,678.73392 462.23408,802.27687 396.76595,551.48935 146.84352,620.18605 190.96256,449.51657 106.22365,383.74467 l 22.62242,163.36908 M 630.97917,681.65991 732.2553,551.48935 c -106.272,14.59068 -153.39853,184.4543 -335.48935,0 -182.09082,184.4543 -229.21735,14.59068 -335.489355,0 L 162.55273,681.65991 m 502.1331,-134.54616 22.62242,-163.36908 c -84.73891,65.7719 -40.61987,236.44138 -290.5423,167.74468 -65.46813,250.78752 -191.21271,127.24457 -290.5423,167.74468 l 152.79298,62.09294 M 626.60357,413.74003 564.51063,260.94705 c -40.50011,99.32959 83.04284,225.07417 -167.74468,290.5423 68.6967,249.92243 -101.97278,205.80339 -167.74468,290.5423 L 392.39035,819.40923 M 526.93651,317.27613 396.76595,215.99999 c 14.59068,106.27201 184.4543,153.39854 0,335.48936 184.4543,182.09082 14.59068,229.21735 0,335.48935 L 526.93651,785.70257 M 392.39035,283.56947 229.02127,260.94705 c 65.7719,84.73891 236.44138,40.61987 167.74468,290.5423 250.78752,65.46813 127.24457,191.21271 167.74468,290.5423 L 626.60357,689.23867 M 259.01663,321.65173 106.22365,383.74467 c 99.32959,40.50011 225.07417,-83.04284 290.5423,167.74468 249.92243,-68.6967 205.80339,101.97278 290.5423,167.74468 L 664.68583,555.86495"
       id="path1286"
       transform="translate(-7.6616822e-5,-2.0001183)" /><path
       style="fill:none;fill-opacity:1;stroke:#ffffff;stroke-width:11.9622;stroke-linecap:round;stroke-linejoin:round;stroke-dasharray:none;stroke-opacity:1;paint-order:markers stroke fill"
       d="M 162.55273,421.31879 61.276595,551.48935 c 106.272005,-14.59068 153.398535,-184.4543 335.489355,0 182.09082,-184.4543 229.21735,-14.59068 335.48935,0 L 630.97917,421.31879 m -502.1331,134.54616 -22.62242,163.36908 c 84.73891,-65.7719 40.61987,-236.44138 290.5423,-167.74468 65.46813,-250.78752 191.21271,-127.24457 290.5423,-167.74468 L 534.51527,321.65173 M 166.92833,689.23867 229.02127,842.03165 C 269.52138,742.70206 145.97843,616.95748 396.76595,551.48935 328.06925,301.56692 498.73873,345.68596 564.51063,260.94705 L 401.14155,283.56947 M 266.59539,785.70257 396.76595,886.9787 c -14.59068,-106.272 -184.4543,-153.39853 0,-335.48935 C 212.31165,369.39853 382.17527,322.272 396.76595,216 L 266.59539,317.27613 m 134.54616,502.1331 163.36908,22.62242 C 498.73873,757.29274 328.06925,801.41178 396.76595,551.48935 145.97843,486.02122 269.52138,360.27664 229.02127,260.94705 L 166.92833,413.74003 M 534.51527,781.32697 687.30825,719.23403 C 587.97866,678.73392 462.23408,802.27687 396.76595,551.48935 146.84352,620.18605 190.96256,449.51657 106.22365,383.74467 l 22.62242,163.36908 M 630.97917,681.65991 732.2553,551.48935 c -106.272,14.59068 -153.39853,184.4543 -335.48935,0 -182.09082,184.4543 -229.21735,14.59068 -335.489355,0 L 162.55273,681.65991 m 502.1331,-134.54616 22.62242,-163.36908 c -84.73891,65.7719 -40.61987,236.44138 -290.5423,167.74468 -65.46813,250.78752 -191.21271,127.24457 -290.5423,167.74468 l 152.79298,62.09294 M 626.60357,413.74003 564.51063,260.94705 c -40.50011,99.32959 83.04284,225.07417 -167.74468,290.5423 68.6967,249.92243 -101.97278,205.80339 -167.74468,290.5423 L 392.39035,819.40923 M 526.93651,317.27613 396.76595,215.99999 c 14.59068,106.27201 184.4543,153.39854 0,335.48936 184.4543,182.09082 14.59068,229.21735 0,335.48935 L 526.93651,785.70257 M 392.39035,283.56947 229.02127,260.94705 c 65.7719,84.73891 236.44138,40.61987 167.74468,290.5423 250.78752,65.46813 127.24457,191.21271 167.74468,290.5423 L 626.60357,689.23867 M 259.01663,321.65173 106.22365,383.74467 c 99.32959,40.50011 225.07417,-83.04284 290.5423,167.74468 249.92243,-68.6967 205.80339,101.97278 290.5423,167.74468 L 664.68583,555.86495"
       id="path1290" /></g></g></svg>
