<?xml version="1.0" encoding="UTF-8" standalone="no"?>
<svg
   width="31.723442mm"
   height="31.72344mm"
   viewBox="0 0 119.89962 119.89962"
   version="1.1"
   xml:space="preserve"
   id="SVGRoot"
   xmlns="http://www.w3.org/2000/svg"
   xmlns:svg="http://www.w3.org/2000/svg"><defs
   id="defs1"><filter
     style="color-interpolation-filters:sRGB"
     id="filter1295"
     x="-0.010346475"
     y="-0.010346475"
     width="1.0206929"
     height="1.0206929"><feGaussianBlur
       stdDeviation="4.0397233"
       id="feGaussianBlur1295" /></filter></defs>

<style
   type="text/css"
   id="style1">
g.prefab path {
  vector-effect:non-scaling-stroke;
  -inkscape-stroke:hairline;
  fill: none;
  fill-opacity: 1;
  stroke-opacity: 1;
  stroke: #00349c;
}
</style>

<path
   style="fill:none;fill-opacity:1;stroke:#ededed;stroke-width:2.11276;stroke-linecap:round;stroke-linejoin:round;stroke-dasharray:none;stroke-opacity:1;paint-order:markers stroke fill;filter:url(#filter1295)"
   d="M -122.81759,587.80432 15.491546,786.98623 396.76595,551.48935 807.09233,731.65931 916.34949,515.17438 M -35.049112,842.73081 184.32107,946.07284 396.76595,551.48935 842.204,502.35792 828.58101,260.24789 M 168.42387,1019.6194 410.07503,999.43111 396.76595,551.48935 757.9609,286.22126 625.10803,83.359314 M 433.08092,1071.0729 632.26283,932.76375 396.76595,551.48935 576.93591,141.16297 360.45098,31.905805 M 688.00741,983.30441 791.34944,763.93423 396.76595,551.48935 347.63452,106.0513 105.52449,119.67429 M 864.89599,779.83143 844.70771,538.18027 396.76595,551.48935 131.49786,190.2944 -71.364086,323.14727 M 916.34949,515.17438 778.04035,315.99247 396.76595,551.48935 -13.560433,371.31939 -122.81759,587.80432 M 828.58101,260.24789 609.21083,156.90586 396.76595,551.48935 -48.6721,600.62078 -35.049112,842.73081 M 625.10803,83.359314 383.45687,103.54759 396.76595,551.48935 35.571,816.75744 168.42387,1019.6194 M 360.45098,31.905805 161.26907,170.21495 396.76595,551.48935 216.59599,961.81573 433.08092,1071.0729 M 105.52449,119.67429 2.1824637,339.04447 396.76595,551.48935 445.89738,996.9274 688.00741,983.30441 M -71.364086,323.14727 -51.175812,564.79843 396.76595,551.48935 662.03404,912.6843 864.89599,779.83143"
   id="path1285"
   transform="matrix(0.11277183,0,0,0.11277183,15.205801,-2.2426354)" /></svg>
